<?xml version="1.0" standalone="no"?>
<!DOCTYPE svg PUBLIC "-//W3C//DTD SVG 20010904//EN"
 "http://www.w3.org/TR/2001/REC-SVG-20010904/DTD/svg10.dtd">
<svg version="1.0" xmlns="http://www.w3.org/2000/svg"
 width="330.000000pt" height="330.000000pt" viewBox="0 0 330.000000 330.000000"
 preserveAspectRatio="xMidYMid meet">
<metadata>
Created by potrace 1.11, written by Peter Selinger 2001-2013
</metadata>
<g transform="translate(0.000000,330.000000) scale(0.100000,-0.100000)"
fill="#000000" stroke="none">
<path d="M2159 3280 c-91 -11 -184 -36 -249 -67 -30 -14 -60 -27 -66 -28 -7
-2 -47 -27 -90 -56 -194 -131 -327 -325 -380 -556 -10 -43 -18 -79 -19 -80 0
-1 -36 9 -78 22 -43 13 -118 29 -168 35 -95 11 -243 4 -233 -12 3 -5 -5 -6
-19 -3 -57 15 -363 -103 -312 -120 11 -3 28 -11 37 -16 10 -5 29 -9 42 -9 13
0 37 -7 52 -15 18 -9 23 -15 12 -15 -9 0 -20 5 -24 11 -3 6 -19 9 -34 6 -16
-4 -36 0 -49 10 -20 14 -24 13 -44 -4 -14 -12 -17 -13 -9 -2 24 32 -13 39 -48
9 -13 -11 -26 -20 -29 -20 -15 0 -157 -150 -194 -204 -37 -56 -127 -233 -127
-252 0 -5 20 26 43 69 83 152 236 273 409 323 90 26 251 33 338 14 62 -14 210
-71 210 -81 0 -5 4 -9 10 -9 16 0 49 -29 133 -114 61 -62 81 -76 88 -65 7 11
9 11 9 -3 0 -10 -5 -18 -10 -18 -7 0 -7 -7 0 -20 6 -11 16 -17 22 -14 6 4 8 3
5 -3 -9 -15 41 -125 53 -118 22 14 0 101 -28 108 -9 3 -3 5 13 6 17 1 57 9 90
17 33 8 76 19 94 24 42 10 51 6 50 -23 -1 -18 -2 -19 -6 -4 -4 15 -12 18 -36
14 -46 -7 -169 -36 -174 -40 -2 -2 3 -19 11 -38 12 -29 12 -38 1 -59 -11 -20
-11 -28 -1 -40 7 -8 19 -35 26 -60 21 -65 28 -70 114 -70 60 0 76 3 76 15 0 8
13 30 30 48 16 19 26 38 22 42 -4 5 -2 5 4 2 7 -4 31 0 54 8 23 8 54 15 69 15
22 0 33 13 74 86 l48 86 -64 62 c-102 98 -163 202 -196 334 l-17 65 -24 -24
c-14 -14 -33 -28 -42 -31 -34 -14 -51 -55 -42 -101 8 -38 12 -43 44 -47 32 -5
33 -6 11 -14 -14 -5 -27 -4 -34 3 -20 20 -24 12 -21 -35 1 -25 14 -68 28 -95
15 -27 23 -49 20 -49 -4 0 0 -8 7 -17 13 -16 12 -17 -3 -5 -10 8 -20 24 -24
35 -3 12 -12 29 -18 37 -20 24 -36 93 -29 120 6 22 5 23 -9 12 -14 -11 -16
-10 -11 7 6 24 -38 56 -67 48 -13 -3 -21 1 -25 14 -4 10 -11 19 -17 19 -6 0
-9 3 -6 6 3 3 14 1 25 -5 41 -23 91 -38 103 -31 8 5 10 17 6 33 -4 16 -1 29 9
37 8 7 12 17 8 23 -3 6 -1 7 5 3 6 -4 28 10 49 30 21 21 40 35 43 33 3 -2 6
22 8 54 3 53 1 58 -15 53 -10 -2 -45 -1 -78 4 l-60 8 60 0 c98 0 95 0 95 30 1
94 64 266 128 351 19 24 35 52 37 63 5 26 46 90 53 84 3 -3 -2 -14 -10 -23
-36 -43 -27 -54 14 -17 24 22 71 57 106 78 34 21 62 42 62 45 0 3 10 7 23 8
12 0 54 11 92 23 48 14 101 22 167 23 64 1 88 5 70 9 -44 12 -202 17 -273 8z
m-749 -916 c0 -2 -11 -4 -25 -4 -14 0 -25 4 -25 9 0 4 11 6 25 3 14 -2 25 -6
25 -8z m34 -151 c-7 -16 -14 -36 -14 -46 0 -10 -4 -16 -9 -12 -5 3 -12 1 -16
-5 -8 -13 -25 -13 -25 0 0 6 7 10 16 10 8 0 21 15 29 33 12 29 24 47 31 47 2
0 -4 -12 -12 -27z m-63 -124 c-5 -13 -10 -19 -10 -12 -1 15 10 45 15 40 3 -2
0 -15 -5 -28z m302 -119 c-11 -19 -14 -34 -8 -38 6 -4 11 -14 13 -22 2 -11 -1
-11 -11 3 -17 20 -33 22 -40 5 -3 -7 -6 -1 -6 13 -1 28 20 54 33 41 4 -4 12 1
17 11 6 9 12 17 15 17 3 0 -3 -14 -13 -30z"/>
<path d="M2960 2952 c6 -13 14 -21 18 -18 3 4 -2 14 -12 24 -18 16 -18 16 -6
-6z"/>
<path d="M3005 2868 c14 -29 30 -77 36 -106 8 -35 15 -49 21 -40 5 8 7 4 3
-12 -3 -14 -2 -62 3 -106 4 -45 5 -88 1 -95 -4 -8 -11 -39 -17 -70 -12 -66
-56 -182 -84 -222 -11 -15 -17 -34 -14 -43 3 -9 1 -14 -7 -12 -6 1 -39 -26
-72 -60 -70 -75 -177 -144 -277 -180 -67 -25 -85 -27 -223 -26 -136 0 -156 3
-217 26 l-67 25 -50 -89 -50 -89 21 -35 c16 -28 19 -47 16 -98 -4 -61 -3 -64
19 -62 13 0 23 3 23 7 0 3 16 22 35 43 19 21 35 34 35 29 0 -5 -11 -20 -24
-32 -14 -13 -30 -36 -36 -52 -7 -16 -17 -29 -22 -29 -18 0 -2 -116 20 -152
l22 -35 72 26 c95 32 260 40 360 17 270 -63 472 -271 527 -544 21 -101 11
-248 -25 -364 -4 -12 0 -15 16 -11 11 3 20 14 20 24 0 10 5 21 11 25 6 3 20
27 31 53 36 84 79 299 57 285 -5 -3 -9 0 -9 5 0 6 5 11 10 11 6 0 10 27 10 60
0 52 -2 59 -17 53 -15 -5 -16 -3 -5 8 6 7 12 25 12 39 0 51 -41 186 -85 278
-37 76 -48 92 -67 92 -18 0 -20 2 -9 9 21 13 -18 67 -116 160 -73 70 -76 74
-57 88 10 8 18 19 17 24 -2 5 3 9 10 9 27 0 170 170 150 177 -7 3 -13 9 -13
14 0 4 6 6 14 3 9 -3 18 6 25 26 6 17 22 45 36 62 14 17 25 38 23 47 -2 9 4
23 13 32 9 9 27 59 39 110 28 117 30 295 5 404 -13 56 -47 150 -72 200 -62
123 -129 202 -78 93z m43 -741 c6 -5 12 -6 12 -1 0 5 7 -4 15 -20 22 -42 18
-56 -6 -18 -12 17 -24 32 -28 32 -4 0 -16 7 -27 15 -19 15 -19 15 1 8 11 -3
26 -10 33 -16z"/>
<path d="M1780 2590 c0 -5 7 -10 15 -10 8 0 15 5 15 10 0 6 -7 10 -15 10 -8 0
-15 -4 -15 -10z"/>
<path d="M1828 2594 c-3 -5 -8 -22 -12 -38 -7 -27 -5 -28 19 -22 27 7 31 0 15
-24 -7 -11 -10 -12 -10 -2 0 8 -6 12 -12 10 -7 -3 -20 2 -28 11 -13 13 -15 12
-18 -8 -4 -28 12 -105 33 -153 15 -37 17 -38 66 -38 47 0 50 1 44 23 -5 19 -4
18 9 -4 18 -31 78 -48 102 -28 12 10 13 9 9 -3 -4 -11 3 -19 25 -26 37 -13 87
-6 94 14 3 8 12 14 21 14 12 0 11 -4 -4 -19 -11 -11 -27 -21 -38 -23 -13 -2
-4 -11 32 -32 85 -50 154 -108 206 -175 27 -35 49 -67 49 -71 0 -29 100 -13
199 31 36 16 66 31 68 33 8 8 -21 56 -34 56 -8 0 -11 5 -8 11 11 17 -62 118
-137 191 -122 120 -271 205 -433 248 -86 23 -249 38 -257 24z m202 -85 c0 -59
-2 -80 -8 -74 -3 3 -11 0 -19 -7 -7 -6 -16 -8 -19 -5 -3 3 4 10 15 17 17 9 21
20 21 67 0 31 2 54 5 51 3 -2 5 -24 5 -49z m-118 -114 c9 -18 8 -17 -11 2 -11
12 -21 28 -21 35 0 14 10 2 32 -37z"/>
<path d="M1038 2157 c-9 -12 -24 -40 -36 -63 -19 -38 -20 -42 -4 -57 10 -11
12 -17 4 -17 -7 0 -12 5 -12 10 0 6 -4 10 -10 10 -22 0 -90 -273 -90 -362 0
-11 57 12 71 28 6 8 22 14 34 14 16 0 27 9 37 31 10 23 18 29 35 26 12 -2 22
-1 21 2 0 3 0 13 2 21 1 11 4 9 9 -5 4 -11 19 -23 32 -27 17 -5 10 -6 -23 -5
-46 1 -78 -14 -78 -37 0 -6 -19 -20 -42 -31 -28 -14 -44 -29 -48 -45 l-6 -25
-6 23 c-4 15 -11 20 -22 16 -20 -8 -24 -98 -4 -92 7 3 15 15 19 29 6 23 6 23
10 -6 3 -22 10 -31 27 -33 12 -2 22 -8 22 -13 0 -13 -12 -11 -38 7 -23 16 -24
16 -25 -18 -1 -19 4 -23 29 -22 l29 2 -28 -11 c-18 -7 -26 -16 -22 -26 3 -8 1
-18 -5 -21 -16 -10 22 -135 72 -235 41 -83 58 -108 58 -87 0 22 2 27 12 39 6
7 14 10 20 7 5 -3 15 0 23 6 10 8 15 9 15 2 0 -6 -9 -16 -20 -22 -11 -6 -20
-18 -20 -26 0 -24 49 9 120 81 l61 61 -31 65 c-16 35 -30 70 -30 77 0 18 -55
15 -73 -5 -8 -10 -22 -40 -31 -68 -15 -46 -15 -29 -1 38 5 21 -16 22 -55 2
-17 -9 -30 -12 -30 -7 0 10 61 35 82 33 20 -2 43 35 28 44 -5 3 -10 11 -10 17
0 6 8 4 18 -5 9 -8 26 -17 37 -19 22 -3 22 -4 4 97 -18 97 5 276 46 355 7 14
16 35 19 48 7 20 4 22 -32 22 -31 0 -41 -4 -45 -20 -3 -11 -13 -20 -24 -20
-17 1 -17 1 0 11 9 5 17 19 17 29 0 17 -7 20 -42 21 -24 0 -52 4 -63 9 -12 5
3 6 38 3 l57 -6 1 29 1 29 7 -29 c7 -33 37 -46 84 -37 l28 6 -63 63 c-35 35
-82 74 -104 87 l-42 25 -14 -23z m63 -644 c13 -16 12 -17 -3 -4 -10 7 -18 15
-18 17 0 8 8 3 21 -13z"/>
<path d="M3056 1945 c-9 -26 -7 -32 5 -12 6 10 9 21 6 23 -2 3 -7 -2 -11 -11z"/>
<path d="M1460 1730 c0 -11 4 -20 9 -20 5 0 7 9 4 20 -3 11 -7 20 -9 20 -2 0
-4 -9 -4 -20z"/>
<path d="M1455 1538 c-30 -199 -157 -383 -333 -487 -109 -64 -179 -84 -322
-89 -157 -5 -248 16 -376 90 -47 27 -87 48 -89 46 -1 -2 -7 -12 -13 -24 -10
-19 -4 -28 56 -86 90 -86 249 -187 271 -173 5 3 11 -1 14 -7 3 -10 8 -9 22 2
17 14 18 13 12 -2 -5 -14 6 -21 61 -38 37 -12 94 -23 127 -26 33 -2 71 -7 85
-9 44 -9 216 14 300 41 45 14 84 23 86 21 3 -3 14 -42 25 -88 22 -93 88 -239
142 -313 90 -123 236 -244 366 -302 42 -19 56 -22 62 -12 4 7 4 15 0 18 -5 3
-8 25 -8 50 0 26 -5 46 -13 48 -7 3 -20 13 -29 24 -9 11 -24 29 -35 41 -60 70
-146 228 -146 268 0 7 -7 21 -17 31 -9 10 -12 18 -6 18 7 0 7 19 1 58 -26 158
31 363 140 507 37 48 37 51 21 69 -10 10 -30 19 -44 19 -14 0 -25 5 -25 12 0
7 -20 33 -44 59 -41 44 -46 47 -68 35 -23 -12 -23 -12 -5 9 21 23 9 37 -26 28
-14 -3 -37 4 -62 19 -45 27 -40 33 6 9 34 -17 80 -12 99 12 10 11 9 19 -4 39
-9 14 -21 25 -27 25 -16 0 -69 43 -69 55 0 25 -37 45 -82 45 l-46 0 -7 -42z
m-808 -700 c-3 -8 -6 -5 -6 6 -1 11 2 17 5 13 3 -3 4 -12 1 -19z"/>
<path d="M1589 1563 c16 -29 59 -71 79 -77 10 -4 25 -17 32 -31 7 -13 17 -22
22 -19 4 3 8 1 8 -4 0 -6 -7 -12 -15 -16 -27 -10 -15 -40 30 -76 24 -19 44
-41 44 -48 1 -9 8 -11 24 -7 12 4 27 8 32 9 17 2 43 47 38 66 -3 10 0 27 6 39
20 37 -1 58 -63 63 -64 5 -97 25 -134 78 -24 35 -31 39 -70 40 -38 0 -42 -2
-33 -17z"/>
<path d="M2009 1555 c-6 -21 -3 -35 13 -67 10 -21 19 -38 21 -38 1 0 1 20 -1
45 -3 31 -9 45 -19 45 -8 0 -11 5 -8 10 3 6 4 10 1 10 -3 0 -7 -2 -7 -5z"/>
<path d="M1900 1386 c0 -17 14 -29 23 -20 8 8 -3 34 -14 34 -5 0 -9 -6 -9 -14z"/>
<path d="M140 1355 c0 -5 24 -57 53 -115 33 -66 57 -104 66 -102 8 2 11 -3 8
-10 -6 -17 29 -62 42 -54 25 16 17 46 -21 81 -50 48 -81 89 -118 156 -16 30
-30 50 -30 44z"/>
<path d="M1913 1338 c-28 -14 -29 -42 -3 -70 18 -20 20 -20 45 -4 15 10 25 20
23 24 -2 4 -10 19 -17 35 -16 30 -17 30 -48 15z"/>
<path d="M2415 1273 c-16 -26 -56 -74 -88 -106 -32 -34 -56 -66 -53 -73 6 -17
67 -55 77 -48 4 2 5 14 2 27 -4 20 -4 20 9 -3 8 -14 11 -27 7 -30 -5 -3 -13
-17 -19 -30 -10 -23 -10 -23 -6 -2 2 12 1 22 -3 22 -4 0 -28 14 -54 31 l-46
30 -43 -28 c-24 -15 -46 -32 -50 -38 -4 -5 -8 -7 -8 -3 0 8 -81 -21 -90 -31
-3 -3 -14 -7 -25 -8 -135 -15 -190 -24 -195 -30 -16 -18 -41 -113 -47 -179 -5
-68 -5 -71 17 -77 24 -6 214 8 240 18 9 3 26 23 40 44 15 25 33 41 49 44 24 5
25 4 6 -9 -10 -8 -21 -14 -24 -14 -3 0 -13 -13 -23 -29 l-16 -29 51 14 c104
30 303 137 291 156 -3 4 1 8 9 8 8 0 27 10 42 21 l27 22 -32 13 c-18 8 -36 11
-41 8 -5 -3 -9 1 -9 9 0 12 7 12 45 -2 l44 -16 31 30 c41 39 122 149 148 202
25 48 23 50 -60 87 -40 18 -148 47 -172 46 -1 0 -14 -21 -31 -47z m-274 -335
c-6 -17 -11 -43 -12 -57 0 -14 -3 -20 -6 -13 -3 8 1 41 8 75 8 33 15 53 17 43
2 -9 -1 -31 -7 -48z m224 32 c3 -6 -1 -7 -9 -4 -18 7 -21 14 -7 14 6 0 13 -4
16 -10z m45 -26 c0 -2 -7 -4 -15 -4 -8 0 -15 4 -15 10 0 5 7 7 15 4 8 -4 15
-8 15 -10z m-293 -126 c-3 -7 -5 -2 -5 12 0 14 2 19 5 13 2 -7 2 -19 0 -25z
m-238 -27 c18 -16 20 -24 12 -38 -10 -17 -10 -17 -11 1 0 11 -7 28 -17 38 -21
24 -12 23 16 -1z m21 -71 c0 -5 -5 -10 -11 -10 -5 0 -7 5 -4 10 3 6 8 10 11
10 2 0 4 -4 4 -10z"/>
<path d="M1857 1267 c-15 -23 -15 -26 2 -41 22 -20 35 -20 51 -1 7 8 8 15 4
15 -5 0 -16 12 -25 26 l-16 26 -16 -25z"/>
<path d="M1810 1270 c0 -5 7 -10 15 -10 8 0 15 5 15 10 0 6 -7 10 -15 10 -8 0
-15 -4 -15 -10z"/>
<path d="M3023 440 c-3 -11 -9 -20 -14 -20 -5 0 -9 -5 -9 -12 0 -6 11 -1 25
12 27 25 32 40 14 40 -6 0 -13 -9 -16 -20z"/>
<path d="M2962 344 c-12 -19 -20 -34 -18 -34 7 0 49 61 44 65 -2 2 -13 -12
-26 -31z"/>
<path d="M1968 132 c5 -42 46 -86 74 -79 10 3 18 0 18 -8 0 -27 222 -44 335
-25 l50 8 -63 -1 c-34 -1 -62 1 -62 6 0 4 -12 7 -28 7 -67 0 -217 56 -302 113
l-26 17 4 -38z"/>
</g>
</svg>
